<?xml version="1.0" standalone="no"?>
<!DOCTYPE svg PUBLIC "-//W3C//DTD SVG 20010904//EN"
 "http://www.w3.org/TR/2001/REC-SVG-20010904/DTD/svg10.dtd">
<svg version="1.0" xmlns="http://www.w3.org/2000/svg"
 width="512.000000pt" height="512.000000pt" viewBox="0 0 512.000000 512.000000"
 preserveAspectRatio="xMidYMid meet">

<g transform="translate(0.000000,512.000000) scale(0.100000,-0.100000)"
fill="#ff0000" stroke="none">
<path d="M2330 5109 c-476 -45 -930 -221 -1319 -512 -124 -92 -396 -364 -488
-488 -696 -931 -696 -2167 0 -3098 92 -124 364 -396 488 -488 931 -696 2167
-696 3098 0 124 92 396 364 488 488 696 931 696 2167 0 3098 -92 124 -364 396
-488 488 -517 386 -1159 571 -1779 512z m-470 -980 c64 -27 184 -94 218 -120
23 -18 25 -18 71 5 216 110 637 185 885 158 117 -13 148 -25 242 -96 115 -86
316 -312 384 -431 l22 -40 -35 -483 -36 -483 -163 -176 c-90 -97 -194 -211
-233 -253 l-70 -76 -175 -7 c-96 -4 -329 -10 -518 -13 l-343 -7 3 -554 3 -554
-35 -9 c-119 -31 -200 -50 -212 -50 -23 0 -187 113 -256 176 -64 58 -126 133
-155 190 -15 29 -12 54 87 605 l104 575 -24 715 c-13 393 -23 754 -22 804 l3
89 60 42 c58 41 60 41 100 29 22 -6 65 -23 95 -36z"/>
<path d="M2620 3666 c-136 -20 -270 -53 -382 -94 l-96 -35 -6 -91 c-10 -164
-29 -926 -23 -933 7 -6 958 205 969 215 37 39 49 904 13 940 -12 13 -385 11
-475 -2z"/>
</g>
</svg>
